HIERARCHY
ROOT Hips
{
  OFFSET 54.8585 84.17 6.6064
  CHANNELS 6 Xposition Yposition Zposition Zrotation Xrotation Yrotation
  JOINT spine
  {
    OFFSET 0 5.95438 0.342407
    CHANNELS 3 Zrotation Xrotation Yrotation
    JOINT spine1
    {
      OFFSET 0 8.85602 0
      CHANNELS 3 Zrotation Xrotation Yrotation
      JOINT spine2
      {
        OFFSET 0 8.48567 0
        CHANNELS 3 Zrotation Xrotation Yrotation
        JOINT Neck
        {
          OFFSET 0 21.7863 1.0387
          CHANNELS 3 Zrotation Xrotation Yrotation
          JOINT Head
          {
            OFFSET 0 6.5822 0
            CHANNELS 3 Zrotation Xrotation Yrotation
            End Site
            {
              OFFSET 0 15.9326 -5.25436
            }
          }
        }
        JOINT RightShoulder
        {
          OFFSET -3.57307 9.16386 -0.497525
          CHANNELS 3 Zrotation Xrotation Yrotation
          JOINT RightArm
          {
            OFFSET 0 12.0192 0
            CHANNELS 3 Zrotation Xrotation Yrotation
            JOINT RightArmRoll
            {
              OFFSET 0 6.06755 0
              CHANNELS 3 Zrotation Xrotation Yrotation
              JOINT RightForeArm
              {
                OFFSET 0 17.6726 0
                CHANNELS 3 Zrotation Xrotation Yrotation
                JOINT RightForeArmRoll
                {
                  OFFSET 0 6.80872 0
                  CHANNELS 3 Zrotation Xrotation Yrotation
                  JOINT RightHand
                  {
                    OFFSET 0 13.6636 0
                    CHANNELS 3 Zrotation Xrotation Yrotation
                    End Site
                    {
                      OFFSET 0 0 0
                    }
                  }
                }
              }
            }
          }
        }
        JOINT LeftShoulder
        {
          OFFSET 3.57307 9.16386 -0.497525
          CHANNELS 3 Zrotation Xrotation Yrotation
          JOINT LeftArm
          {
            OFFSET 0 12.0192 0
            CHANNELS 3 Zrotation Xrotation Yrotation
            JOINT LeftArmRoll
            {
              OFFSET 0 6.06755 0
              CHANNELS 3 Zrotation Xrotation Yrotation
              JOINT LeftForeArm
              {
                OFFSET 0 17.6726 0
                CHANNELS 3 Zrotation Xrotation Yrotation
                JOINT LeftForeArmRoll
                {
                  OFFSET 0 6.80872 0
                  CHANNELS 3 Zrotation Xrotation Yrotation
                  JOINT LeftHand
                  {
                    OFFSET 0 13.6636 0
                    CHANNELS 3 Zrotation Xrotation Yrotation
                    End Site
                    {
                      OFFSET 0 0 0
                    }
                  }
                }
              }
            }
          }
        }
      }
    }
  }
  JOINT RightUpLeg
  {
    OFFSET -5.27774 -0.967797 -0.811858
    CHANNELS 3 Zrotation Xrotation Yrotation
    JOINT RightUpLegRoll
    {
      OFFSET 0 16.0214 0
      CHANNELS 3 Zrotation Xrotation Yrotation
      JOINT RightLeg
      {
        OFFSET 0 -19.8401 0
        CHANNELS 3 Zrotation Xrotation Yrotation
        JOINT RightLegRoll
        {
          OFFSET 0 19.905 0
          CHANNELS 3 Zrotation Xrotation Yrotation
          JOINT RightFoot
          {
            OFFSET 0 16.5675 0
            CHANNELS 3 Zrotation Xrotation Yrotation
            JOINT RightToeBase
            {
              OFFSET 0 13.8496 0
              CHANNELS 3 Zrotation Xrotation Yrotation
              End Site
              {
                OFFSET 0.00587034 6.70728 -0.773117
              }
            }
          }
        }
      }
    }
  }
  JOINT LeftUpLeg
  {
    OFFSET 5.27774 -0.967797 -0.811858
    CHANNELS 3 Zrotation Xrotation Yrotation
    JOINT LeftUpLegRoll
    {
      OFFSET 0 16.0215 0
      CHANNELS 3 Zrotation Xrotation Yrotation
      JOINT LeftLeg
      {
        OFFSET 0 19.84 0
        CHANNELS 3 Zrotation Xrotation Yrotation
        JOINT LeftLegRoll
        {
          OFFSET 0 20.089 0
          CHANNELS 3 Zrotation Xrotation Yrotation
          JOINT LeftFoot
          {
            OFFSET 0 16.3835 0
            CHANNELS 3 Zrotation Xrotation Yrotation
            JOINT LeftToeBase
            {
              OFFSET 0 13.8496 0
              CHANNELS 3 Zrotation Xrotation Yrotation
              End Site
              {
                OFFSET -0.0263083 6.70728 -0.773117
              }
            }
          }
        }
      }
    }
  }
}
MOTION
Frames: 13
Frame Time: 0.00208333
53.8399 84.3906 3.45512 -1.54305 -8.87489 -6.75754 0.222627 -0.51207 0.0590892 0.445713 2.97884 0.105316 0.444976 4.62389 0.0996818 -5.45466 15.6859 -0.193927 6.05679 5.33524 -1.9593 73.2075 -0.107693 -1.6498 103.168 17.2035 -4.23148 -4.736e-006 1.86039e-006 -4.69678e-007 -3.63768 -0.0159605 -1.99176 -8.87158e-006 2.68792e-006 -3 8.03008 -4.95138 0.697639 -71.8128 -3.97928 3.34803 -112.592 20.6964 13.2297 -1.4468e-005 2.64657e-006 -2.23752e-007 3.63217 -0.0167471 1.99184 4.40734e-006 -2.68417e-006 3.01161 -8.03009 -4.95138 -0.697634 179.164 -2.23918 4.27553 180 7.01531e-015 178.855 175.907 9.38594 -179.956 1.8465e-006 -3.04527e-006 0.125882 -18.9472 68.4652 19.9119 8.13649 25.2327 -3.48774 -179.73 -3.53923 -0.500871 4.54188e-006 -4.6773e-006 -1.16913 -2.89533 -10.2606 -0.000934845 1.48736e-006 -4.48412e-006 -0.153236 19.9177 69.5898 -20.9545 -8.13649 25.2327 3.48774 
53.8265 84.3953 3.48809 -1.54381 -8.87834 -6.75089 0.22215 -0.511832 0.0590857 0.444758 2.97931 0.105359 0.444022 4.62437 0.0996121 -5.42143 15.6947 -0.20142 6.03698 5.31895 -1.95494 73.2034 -0.14425 -1.66618 103.085 17.1602 -4.14358 -4.736e-006 1.86039e-006 -4.69678e-007 -3.63768 -0.0159605 -1.99176 -8.87158e-006 2.68792e-006 -3 8.03008 -4.95138 0.697639 -71.7777 -3.98283 3.34733 -112.66 20.6576 13.2812 -1.4468e-005 2.64657e-006 -2.23752e-007 3.63217 -0.0167471 1.99184 4.40734e-006 -2.68417e-006 3.01161 -8.03009 -4.95138 -0.697634 179.166 -2.24966 4.27101 180 7.01531e-015 178.855 175.916 9.38395 -179.958 1.8465e-006 -3.04527e-006 0.125881 -18.9502 68.4687 19.9152 8.13649 25.2327 -3.48774 -179.731 -3.57526 -0.498496 4.54188e-006 -4.6773e-006 -1.16913 -2.89264 -10.2243 0.000597174 1.48736e-006 -4.48412e-006 -0.153205 19.9144 69.5864 -20.9509 -8.13649 25.2327 3.48774 
53.8316 84.3948 3.48047 -1.54464 -8.88182 -6.74408 0.221636 -0.511559 0.0590824 0.443729 2.97986 0.105441 0.442995 4.62491 0.0995761 -5.3872 15.704 -0.209261 6.01639 5.30176 -1.95057 73.2006 -0.180419 -1.6825 103.003 17.1177 -4.05611 -4.736e-006 1.86039e-006 -4.69678e-007 -3.63768 -0.0159605 -1.99176 -8.87158e-006 2.68792e-006 -3 8.03008 -4.95138 0.697639 -71.7417 -3.98654 3.34664 -112.731 20.6186 13.3339 -1.4468e-005 2.64657e-006 -2.23752e-007 3.63217 -0.0167471 1.99184 4.40734e-006 -2.68417e-006 3.01161 -8.03009 -4.95138 -0.697634 179.168 -2.26074 4.26652 180 7.01531e-015 178.855 175.925 9.38087 -179.959 1.8465e-006 -3.04527e-006 0.12588 -18.953 68.4719 19.9182 8.13649 25.2327 -3.48774 -179.733 -3.61269 -0.496107 4.54188e-006 -4.6773e-006 -1.16913 -2.88993 -10.1868 0.00219932 1.48736e-006 -4.48412e-006 -0.153157 19.9111 69.583 -20.9474 -8.13649 25.2327 3.48774 
53.8302 84.3959 3.48884 -1.54552 -8.88533 -6.73714 0.221097 -0.51126 0.0590794 0.442649 2.98045 0.105551 0.441916 4.62551 0.0995635 -5.35226 15.7137 -0.217345 5.99526 5.28394 -1.94618 73.1985 -0.216318 -1.69876 102.921 17.0756 -3.96895 -4.736e-006 1.86039e-006 -4.69678e-007 -3.63768 -0.0159605 -1.99176 -8.87158e-006 2.68792e-006 -3 8.03008 -4.95138 0.697639 -71.705 -3.99035 3.34595 -112.801 20.5794 13.3874 -1.4468e-005 2.64657e-006 -2.23752e-007 3.63217 -0.0167471 1.99184 4.40734e-006 -2.68417e-006 3.01161 -8.03009 -4.95138 -0.697634 179.17 -2.27224 4.26204 180 7.01531e-015 178.855 175.933 9.37703 -179.961 1.8465e-006 -3.04527e-006 0.125879 -18.9556 68.4749 19.9211 8.13649 25.2327 -3.48774 -179.734 -3.65109 -0.493708 4.54188e-006 -4.6773e-006 -1.16913 -2.88722 -10.1483 0.00385041 1.48736e-006 -4.48412e-006 -0.153099 19.9078 69.5797 -20.944 -8.13649 25.2327 3.48774 
53.8356 84.3981 3.48914 -1.54643 -8.88885 -6.73015 0.220543 -0.510948 0.0590765 0.441539 2.98108 0.105676 0.440808 4.62613 0.0995644 -5.31692 15.7236 -0.225568 5.97382 5.26576 -1.94179 73.1969 -0.252061 -1.715 102.839 17.0339 -3.88198 -4.736e-006 1.86039e-006 -4.69678e-007 -3.63768 -0.0159605 -1.99176 -8.87158e-006 2.68792e-006 -3 8.03008 -4.95138 0.697639 -71.6679 -3.99423 3.34527 -112.873 20.5402 13.4414 -1.4468e-005 2.64657e-006 -2.23752e-007 3.63217 -0.0167471 1.99184 4.40734e-006 -2.68417e-006 3.01161 -8.03009 -4.95138 -0.697634 179.172 -2.28398 4.25757 180 7.01531e-015 178.855 175.942 9.37274 -179.962 1.8465e-006 -3.04527e-006 0.125878 -18.9582 68.4778 19.9238 8.13649 25.2327 -3.48774 -179.735 -3.69004 -0.491303 4.54188e-006 -4.6773e-006 -1.16913 -2.88449 -10.1093 0.00552929 1.48736e-006 -4.48412e-006 -0.153035 19.9046 69.5763 -20.9405 -8.13649 25.2327 3.48774 
53.8289 84.3998 3.48853 -1.54734 -8.89238 -6.72313 0.219985 -0.510632 0.0590736 0.440423 2.98171 0.105805 0.439693 4.62676 0.0995687 -5.28147 15.7336 -0.233827 5.9523 5.24749 -1.9374 73.1954 -0.287765 -1.73124 102.758 16.9921 -3.79508 -4.736e-006 1.86039e-006 -4.69678e-007 -3.63768 -0.0159605 -1.99176 -8.87158e-006 2.68792e-006 -3 8.03008 -4.95138 0.697639 -71.6307 -3.99813 3.34459 -112.944 20.5009 13.4955 -1.4468e-005 2.64657e-006 -2.23752e-007 3.63217 -0.0167471 1.99184 4.40734e-006 -2.68417e-006 3.01161 -8.03009 -4.95138 -0.697634 179.174 -2.29578 4.2531 180 7.01531e-015 178.855 175.951 9.36835 -179.964 1.8465e-006 -3.04527e-006 0.125876 -18.9607 68.4807 19.9266 8.13649 25.2327 -3.48774 -179.737 -3.72913 -0.488896 4.54188e-006 -4.6773e-006 -1.16913 -2.88177 -10.0702 0.0072148 1.48736e-006 -4.48412e-006 -0.152969 19.9013 69.573 -20.937 -8.13649 25.2327 3.48774 
53.8313 84.3928 3.49266 -1.54823 -8.8959 -6.71615 0.219435 -0.510324 0.0590707 0.439321 2.98233 0.105927 0.438592 4.62738 0.0995662 -5.24622 15.7435 -0.242017 5.93094 5.22939 -1.93302 73.1937 -0.323546 -1.74749 102.676 16.9502 -3.70816 -4.736e-006 1.86039e-006 -4.69678e-007 -3.63768 -0.0159605 -1.99176 -8.87158e-006 2.68792e-006 -3 8.03008 -4.95138 0.697639 -71.5937 -4.002 3.3439 -113.015 20.4617 13.5494 -1.4468e-005 2.64657e-006 -2.23752e-007 3.63217 -0.0167471 1.99184 4.40734e-006 -2.68417e-006 3.01161 -8.03009 -4.95138 -0.697634 179.176 -2.30747 4.24863 180 7.01531e-015 178.855 175.959 9.36418 -179.966 1.8465e-006 -3.04527e-006 0.125875 -18.9633 68.4837 19.9294 8.13649 25.2327 -3.48774 -179.738 -3.76795 -0.486492 4.54188e-006 -4.6773e-006 -1.16913 -2.87906 -10.0313 0.00888582 1.48736e-006 -4.48412e-006 -0.152906 19.8981 69.5697 -20.9336 -8.13649 25.2327 3.48774 
53.8316 84.4022 3.5053 -1.54909 -8.8994 -6.70925 0.218903 -0.510032 0.0590676 0.438255 2.98291 0.106029 0.437528 4.62796 0.099547 -5.21147 15.753 -0.250035 5.90997 5.21175 -1.92864 73.1913 -0.359519 -1.76377 102.595 16.9078 -3.62108 -4.736e-006 1.86039e-006 -4.69678e-007 -3.63768 -0.0159605 -1.99176 -8.87158e-006 2.68792e-006 -3 8.03008 -4.95138 0.697639 -71.5572 -4.00578 3.34322 -113.086 20.4225 13.6026 -1.4468e-005 2.64657e-006 -2.23752e-007 3.63217 -0.0167471 1.99184 4.40734e-006 -2.68417e-006 3.01161 -8.03009 -4.95138 -0.697634 179.178 -2.31885 4.24414 180 7.01531e-015 178.855 175.968 9.36055 -179.967 1.8465e-006 -3.04527e-006 0.125874 -18.9659 68.4867 19.9323 8.13649 25.2327 -3.48774 -179.74 -3.80607 -0.484096 4.54188e-006 -4.6773e-006 -1.16913 -2.87635 -9.99312 0.0105213 1.48736e-006 -4.48412e-006 -0.152851 19.8948 69.5663 -20.9301 -8.13649 25.2327 3.48774 
53.8324 84.4099 3.50669 -1.5499 -8.90287 -6.70248 0.2184 -0.50977 0.0590643 0.437248 2.98343 0.106099 0.436522 4.62849 0.0995009 -5.17752 15.7622 -0.257776 5.88964 5.19483 -1.92427 73.188 -0.395801 -1.78011 102.514 16.8647 -3.53375 -4.736e-006 1.86039e-006 -4.69678e-007 -3.63768 -0.0159605 -1.99176 -8.87158e-006 2.68792e-006 -3 8.03008 -4.95138 0.697639 -71.5214 -4.00944 3.34252 -113.155 20.3836 13.6548 -1.4468e-005 2.64657e-006 -2.23752e-007 3.63217 -0.0167471 1.99184 4.40734e-006 -2.68417e-006 3.01161 -8.03009 -4.95138 -0.697634 179.18 -2.32975 4.23964 180 7.01531e-015 178.855 175.977 9.3578 -179.969 1.8465e-006 -3.04527e-006 0.125873 -18.9688 68.49 19.9354 8.13649 25.2327 -3.48774 -179.741 -3.84307 -0.481711 4.54188e-006 -4.6773e-006 -1.16913 -2.87366 -9.95596 0.0121 1.48736e-006 -4.48412e-006 -0.152808 19.8916 69.5629 -20.9266 -8.13649 25.2327 3.48774 
53.8472 84.4011 3.49505 -1.55063 -8.90631 -6.6959 0.217938 -0.509546 0.0590606 0.436322 2.98388 0.106126 0.435598 4.62894 0.0994178 -5.14468 15.7708 -0.265136 5.87016 5.1789 -1.91992 73.1833 -0.432508 -1.79653 102.432 16.8207 -3.44604 -4.736e-006 1.86039e-006 -4.69678e-007 -3.63768 -0.0159605 -1.99176 -8.87158e-006 2.68792e-006 -3 8.03008 -4.95138 0.697639 -71.4868 -4.01293 3.34182 -113.223 20.3448 13.7056 -1.4468e-005 2.64657e-006 -2.23752e-007 3.63217 -0.0167471 1.99184 4.40734e-006 -2.68417e-006 3.01161 -8.03009 -4.95138 -0.697634 179.182 -2.33999 4.23512 180 7.01531e-015 178.855 175.985 9.35625 -179.971 1.8465e-006 -3.04527e-006 0.125873 -18.9719 68.4936 19.9388 8.13649 25.2327 -3.48774 -179.743 -3.87855 -0.479342 4.54188e-006 -4.6773e-006 -1.16913 -2.87099 -9.92025 0.013601 1.48736e-006 -4.48412e-006 -0.152782 19.8882 69.5595 -20.9231 -8.13649 25.2327 3.48774 
53.8418 84.4043 3.50413 -1.55127 -8.90969 -6.68954 0.217526 -0.509371 0.0590564 0.435499 2.98423 0.106098 0.434778 4.62928 0.0992877 -5.11324 15.7786 -0.272011 5.85179 5.16422 -1.91559 73.1769 -0.469754 -1.81304 102.35 16.7756 -3.35785 -4.736e-006 1.86039e-006 -4.69678e-007 -3.63768 -0.0159605 -1.99176 -8.87158e-006 2.68792e-006 -3 8.03008 -4.95138 0.697639 -71.4536 -4.01619 3.34111 -113.289 20.3062 13.7547 -1.4468e-005 2.64657e-006 -2.23752e-007 3.63217 -0.0167471 1.99184 4.40734e-006 -2.68417e-006 3.01161 -8.03009 -4.95138 -0.697634 179.184 -2.34939 4.23057 180 7.01531e-015 178.855 175.994 9.35622 -179.972 1.8465e-006 -3.04527e-006 0.125873 -18.9753 68.4975 19.9424 8.13649 25.2327 -3.48774 -179.744 -3.91209 -0.476995 4.54188e-006 -4.6773e-006 -1.16913 -2.86835 -9.88638 0.0150031 1.48736e-006 -4.48412e-006 -0.152778 19.8849 69.5561 -20.9195 -8.13649 25.2327 3.48774 
53.8363 84.4094 3.52016 -1.55179 -8.91301 -6.68346 0.217178 -0.509257 0.0590518 0.434801 2.98445 0.106004 0.434082 4.62951 0.0991005 -5.08351 15.7856 -0.278297 5.83474 5.15108 -1.91128 73.1684 -0.507657 -1.82967 102.268 16.7289 -3.26907 -4.736e-006 1.86039e-006 -4.69678e-007 -3.63768 -0.0159605 -1.99176 -8.87158e-006 2.68792e-006 -3 8.03008 -4.95138 0.697639 -71.4221 -4.01919 3.34039 -113.352 20.268 13.8016 -1.4468e-005 2.64657e-006 -2.23752e-007 3.63217 -0.0167471 1.99184 4.40734e-006 -2.68417e-006 3.01161 -8.03009 -4.95138 -0.697634 179.185 -2.35776 4.22599 180 7.01531e-015 178.855 176.004 9.35805 -179.973 1.8465e-006 -3.04527e-006 0.125873 -18.9791 68.5018 19.9465 8.13649 25.2327 -3.48774 -179.746 -3.94326 -0.474672 4.54188e-006 -4.6773e-006 -1.16913 -2.86574 -9.85474 0.0162854 1.48736e-006 -4.48412e-006 -0.152801 19.8815 69.5526 -20.9159 -8.13649 25.2327 3.48774 
53.8478 84.4148 3.51301 -1.55217 -8.91626 -6.67771 0.216902 -0.509213 0.0590464 0.434249 2.98454 0.10583 0.433534 4.6296 0.0988461 -5.05579 15.7915 -0.283889 5.81927 5.13973 -1.907 73.1575 -0.546333 -1.84644 102.185 16.6807 -3.17958 -4.736e-006 1.86039e-006 -4.69678e-007 -3.63768 -0.0159605 -1.99176 -8.87158e-006 2.68792e-006 -3 8.03008 -4.95138 0.697639 -71.3925 -4.02186 3.33966 -113.413 20.2302 13.8461 -1.4468e-005 2.64657e-006 -2.23752e-007 3.63217 -0.0167471 1.99184 4.40734e-006 -2.68417e-006 3.01161 -8.03009 -4.95138 -0.697634 179.187 -2.36494 4.22136 180 7.01531e-015 178.855 176.013 9.36207 -179.975 1.8465e-006 -3.04527e-006 0.125874 -18.9833 68.5066 19.951 8.13649 25.2327 -3.48774 -179.747 -3.97166 -0.472378 4.54188e-006 -4.6773e-006 -1.16913 -2.86316 -9.82572 0.0174268 1.48736e-006 -4.48412e-006 -0.152855 19.878 69.549 -20.9122 -8.13649 25.2327 3.48774 
